This is my own rip.

There is a small logo for 30 seconds every 20 minutes.

General
Unique ID                        : 195905006240219731986349449329680914016 (0x9361EE88F5B5AAC189807DAF7FA91660)
Format                           : Matroska
Format version                   : Version 4 / Version 2
File size                        : 1.99 GiB
Duration                         : 1h 43mn
Overall bit rate mode            : Variable
Overall bit rate                 : 2 756 Kbps
Encoded date                     : UTC 2013-02-08 19:42:47
Writing application              : mkvmerge v6.0.0 ('Coming Up For Air') built on Jan 20 2013 09:52:00
Writing library                  : libebml v1.3.0 + libmatroska v1.4.0

Video
ID                               : 1
Format                           : AVC
Format/Info                      : Advanced Video Codec
Format profile                   : High@L4.1
Format settings, CABAC           : Yes
Format settings, ReFrames        : 7 frames
Codec ID                         : V_MPEG4/ISO/AVC
Duration                         : 1h 43mn
Bit rate mode                    : Variable
Bit rate                         : 2 317 Kbps
Maximum bit rate                 : 50.0 Mbps
Width                            : 1 280 pixels
Height                           : 700 pixels
Display aspect ratio             : 16:9
Frame rate                       : 23.976 fps
Color space                      : YUV
Chroma subsampling               : 4:2:0
Bit depth                        : 8 bits
Scan type                        : Progressive
Bits/(Pixel*Frame)               : 0.108
Stream size                      : 1.67 GiB (84%)
Writing library                  : x264 core 129 r2230 1cffe9f
Language                         : English
Default                          : Yes
Forced                           : No

Audio
ID                               : 2
Format                           : AC-3
Format/Info                      : Audio Coding 3
Mode extension                   : CM (complete main)
Codec ID                         : A_AC3
Duration                         : 1h 43mn
Bit rate mode                    : Constant
Bit rate                         : 384 Kbps
Channel(s)                       : 6 channels
Channel positions                : Front: L C R, Side: L R, LFE
Sampling rate                    : 48.0 KHz
Bit depth                        : 16 bits
Compression mode                 : Lossy
Stream size                      : 284 MiB (14%)
Language                         : English
Default                          : Yes
Forced                           : No

Menu
00:00:00.000                     : Last Day on the Job
00:03:18.448                     : Credits
00:06:33.435                     : A White-Picket Detour/Sentenced
00:10:29.629                     : The Twilight Zone
00:15:07.323                     : A Dream...Come True
00:17:51.112                     : An Opening
00:21:52.895                     : A Guy Named Lou
00:24:14.411                     : Fish Hooks, Black Widows and Mail
00:27:41.577                     : Crisis: Hotshot vs. Veteran
00:31:18.668                     : Guts All Over
00:33:13.825                     : Breakfast Quartet
00:36:48.039                     : A Wager
00:38:01.468                     : Payment
00:41:46.693                     : Making a Date
00:45:31.270                     : Rescuing a Pet
00:47:21.027                     : Dinner at the Mayor's
00:50:44.291                     : Taking the Edge Off
00:53:20.322                     : House Calls and Pit Stops
00:58:31.405                     : Nobody Asked
01:00:05.499                     : Heart Attack
01:02:44.344                     : Grady on Parade
01:04:42.359                     : Festival Nightlife/Dancing
01:11:25.072                     : Lighting Up the Sky
01:16:44.308                     : Ben and Hank Pass the Hat
01:20:06.176                     : Special Delivery
01:24:07.231                     : Two Portfolios
01:26:52.396                     : Back to the Interstate
01:31:00.644                     : Dr. Halberstrom
01:35:41.341                     : Beverly Hills Reunion
01:38:29.801                     : The Doctor Is In
01:39:59.744                     : End Credits
